<svg width="22" height="18" viewBox="0 0 22 18" fill="none" xmlns="http://www.w3.org/2000/svg">
<path d="M16.5 0.146484C14.55 0.146484 12.45 0.568028 11 1.72727C9.55 0.568028 7.45 0.146484 5.5 0.146484C4.05 0.146484 2.51 0.378334 1.22 0.979034C0.49 1.32681 0 2.07505 0 2.92867V14.8162C0 16.1862 1.22 17.1979 2.48 16.8607C3.46 16.5972 4.5 16.4813 5.5 16.4813C7.06 16.4813 8.72 16.7553 10.06 17.4509C10.66 17.767 11.34 17.767 11.93 17.4509C13.27 16.7448 14.93 16.4813 16.49 16.4813C17.49 16.4813 18.53 16.5972 19.51 16.8607C20.77 17.2085 21.99 16.1968 21.99 14.8162V2.92867C21.99 2.07505 21.5 1.32681 20.77 0.979034C19.49 0.378334 17.95 0.146484 16.5 0.146484ZM20 13.5621C20 14.2261 19.42 14.7108 18.8 14.5949C18.05 14.4474 17.27 14.3841 16.5 14.3841C14.8 14.3841 12.35 15.0691 11 15.9649V3.83499C12.35 2.93921 14.8 2.2542 16.5 2.2542C17.42 2.2542 18.33 2.34905 19.2 2.54929C19.66 2.65467 20 3.08675 20 3.58207V13.5621Z" fill="url(#paint0_linear_18_208)"/>
<path d="M12.98 7.00639C12.66 7.00639 12.37 6.79569 12.27 6.45857C12.14 6.0477 12.36 5.5947 12.75 5.46828C14.29 4.94153 16.28 4.77297 18.11 4.9942C18.52 5.04688 18.82 5.43667 18.77 5.86861C18.72 6.30054 18.35 6.61659 17.94 6.56392C16.32 6.36375 14.55 6.52178 13.21 6.97478C13.13 6.98532 13.05 7.00639 12.98 7.00639Z" fill="url(#paint1_linear_18_208)"/>
<path d="M12.98 9.80961C12.66 9.80961 12.37 9.59891 12.27 9.26179C12.14 8.85093 12.36 8.39792 12.75 8.2715C14.28 7.74475 16.28 7.57619 18.11 7.79742C18.52 7.8501 18.82 8.23989 18.77 8.67183C18.72 9.10377 18.35 9.41982 17.94 9.36714C16.32 9.16698 14.55 9.325 13.21 9.77801C13.13 9.79908 13.05 9.80961 12.98 9.80961Z" fill="url(#paint2_linear_18_208)"/>
<path d="M12.98 12.613C12.66 12.613 12.37 12.4023 12.27 12.0651C12.14 11.6543 12.36 11.2013 12.75 11.0748C14.28 10.5481 16.28 10.3795 18.11 10.6008C18.52 10.6534 18.82 11.0432 18.77 11.4752C18.72 11.9071 18.35 12.2126 17.94 12.1705C16.32 11.9703 14.55 12.1283 13.21 12.5814C13.13 12.6024 13.05 12.613 12.98 12.613Z" fill="url(#paint3_linear_18_208)"/>
<defs>
<linearGradient id="paint0_linear_18_208" x1="10.995" y1="0.146484" x2="10.995" y2="17.688" gradientUnits="userSpaceOnUse">
<stop stop-color="#7BD0FF"/>
<stop offset="1" stop-color="#3E94E1"/>
</linearGradient>
<linearGradient id="paint1_linear_18_208" x1="15.504" y1="4.89929" x2="15.504" y2="7.00639" gradientUnits="userSpaceOnUse">
<stop stop-color="#7BD0FF"/>
<stop offset="1" stop-color="#3E94E1"/>
</linearGradient>
<linearGradient id="paint2_linear_18_208" x1="15.504" y1="7.70251" x2="15.504" y2="9.80961" gradientUnits="userSpaceOnUse">
<stop stop-color="#7BD0FF"/>
<stop offset="1" stop-color="#3E94E1"/>
</linearGradient>
<linearGradient id="paint3_linear_18_208" x1="15.504" y1="10.5059" x2="15.504" y2="12.613" gradientUnits="userSpaceOnUse">
<stop stop-color="#7BD0FF"/>
<stop offset="1" stop-color="#3E94E1"/>
</linearGradient>
</defs>
</svg>
