<svg width="22" height="22" viewBox="0 0 22 22" fill="none" xmlns="http://www.w3.org/2000/svg">
<path d="M11.65 15.0569C11.79 14.6775 11.7 14.2454 11.42 13.9503L9.33 11.7794L9.36 11.7478C11.1 9.70329 12.34 7.35318 13.07 4.86607H15.01C15.55 4.86607 16 4.39184 16 3.82275V3.80168C16 3.23259 15.55 2.75835 15.01 2.75835H9V1.70449C9 1.12487 8.55 0.650635 8 0.650635C7.45 0.650635 7 1.12487 7 1.70449V2.75835H0.99C0.45 2.75835 0 3.23259 0 3.80168C0 4.3813 0.45 4.845 0.99 4.845H11.17C10.5 6.88949 9.44 8.81805 8 10.5042C7.19 9.56629 6.51 8.54405 5.94 7.46911C5.78 7.16349 5.49 6.97379 5.16 6.97379C4.47 6.97379 4.03 7.76419 4.37 8.39651C5 9.58737 5.77 10.7255 6.67 11.7794L2.3 16.3215C1.9 16.7325 1.9 17.407 2.3 17.818C2.69 18.229 3.32 18.229 3.72 17.818L8 13.297L10.02 15.4258C10.53 15.9632 11.4 15.763 11.65 15.0569ZM16.5 9.08151C15.9 9.08151 15.36 9.47144 15.15 10.0721L11.48 20.4C11.24 21.0428 11.7 21.7278 12.35 21.7278C12.74 21.7278 13.09 21.4749 13.23 21.085L14.12 18.5663H18.87L19.77 21.085C19.91 21.4644 20.26 21.7278 20.65 21.7278C21.3 21.7278 21.76 21.0428 21.53 20.4L17.86 10.0721C17.64 9.47144 17.1 9.08151 16.5 9.08151ZM14.88 16.4585L16.5 11.8953L18.12 16.4585H14.88Z" fill="url(#paint0_linear_18_216)"/>
<defs>
<linearGradient id="paint0_linear_18_216" x1="10.795" y1="0.650635" x2="10.795" y2="21.7278" gradientUnits="userSpaceOnUse">
<stop stop-color="#7BD0FF"/>
<stop offset="1" stop-color="#3E94E1"/>
</linearGradient>
</defs>
</svg>
